<svg width="128" height="128" viewBox="0 0 128 128" fill="none" xmlns="http://www.w3.org/2000/svg">
<path fill-rule="evenodd" clip-rule="evenodd" d="M28 62.2222V94C28 95.5152 28.856 96.9 30.2111 97.5776L62.2111 113.578C63.3373 114.141 64.6627 114.141 65.7889 113.578L97.7888 97.5776C99.144 96.9 100 95.5152 100 94V62.2222L92 66.6666V91.528L64 105.528L36 91.528V66.6666L28 62.2222Z" fill="#5C6C73"/>
<path d="M64 20L65.9426 16.5033C64.7345 15.8322 63.2655 15.8322 62.0574 16.5033L64 20ZM120 51.1111H124C124 49.6585 123.213 48.32 121.942 47.6145L120 51.1111ZM64 82.2224L62.0574 85.7192C63.2655 86.3904 64.7345 86.3904 65.9426 85.7192L64 82.2224ZM8 51.1111L6.05743 47.6145C4.78757 48.32 4 49.6585 4 51.1111C4 52.5637 4.78757 53.9022 6.05743 54.6077L8 51.1111ZM116 82.2224C116 84.4312 117.791 86.2224 120 86.2224C122.209 86.2224 124 84.4312 124 82.2224H116ZM62.0574 23.4966L118.058 54.6077L121.942 47.6145L65.9426 16.5033L62.0574 23.4966ZM118.058 47.6145L62.0574 78.7256L65.9426 85.7192L121.942 54.6077L118.058 47.6145ZM65.9426 78.7256L9.94256 47.6145L6.05743 54.6077L62.0574 85.7192L65.9426 78.7256ZM9.94256 54.6077L65.9426 23.4966L62.0574 16.5033L6.05743 47.6145L9.94256 54.6077ZM116 51.1111V82.2224H124V51.1111H116Z" fill="#5C6C73"/>
</svg>
