<svg width="101" height="73" viewBox="0 0 101 73" fill="none" xmlns="http://www.w3.org/2000/svg">
<g clip-path="url(#clip0_150_285)">
<path d="M30.3884 68.4101L30.2369 66.7038C29.9806 64.3281 30.7185 61.9516 32.3547 59.8828C34.5155 57.1778 35.653 54.1094 35.653 50.9859C35.653 47.8625 34.5155 44.7941 32.3547 42.0891C30.8739 40.255 30.091 38.1703 30.0855 36.0468C30.08 33.9233 30.852 31.8366 32.3231 29.9984C34.572 27.3297 35.7308 24.2557 35.6656 21.1312C35.7676 17.9651 34.6061 14.8448 32.32 12.1431C30.8821 10.447 30.1177 8.49759 30.1106 6.50841L30.1106 4.59672C27.3047 4.59672 24.6219 4.57619 22.1726 4.5625L22.1726 6.52666C22.1771 9.54395 23.3254 12.5027 25.493 15.0813C27.0385 16.9023 27.807 19.0122 27.7024 21.1472C27.7613 23.2659 26.9745 25.352 25.4362 27.156C23.2736 29.8605 22.135 32.9291 22.135 36.0529C22.135 39.1766 23.2736 42.2452 25.4362 44.9498C26.9196 46.7919 27.7011 48.8853 27.7011 51.0167C27.7011 53.1482 26.9196 55.2416 25.4362 57.0837C23.0347 60.1299 21.9476 63.6253 22.3147 67.1212L22.4472 68.4375C24.9344 68.4261 27.6203 68.417 30.3884 68.4101Z" fill="#5C6C73"/>
<path d="M51.8225 68.3987L51.6741 66.7037C51.4212 64.3282 52.1589 61.9524 53.792 59.8828C55.9527 57.1778 57.0903 54.1094 57.0903 50.9859C57.0903 47.8625 55.9527 44.794 53.792 42.089C52.3121 40.2547 51.5298 38.1702 51.5242 36.0468C51.5187 33.9234 52.2902 31.8368 53.7604 29.9984C55.9992 27.3267 57.1551 24.2544 57.0966 21.1312C57.1866 17.9654 56.026 14.8468 53.7509 12.1408C52.3122 10.4458 51.5478 8.49694 51.5416 6.50839L51.5416 4.61951C48.8619 4.61951 46.198 4.61951 43.6036 4.61951L43.6036 6.53576C43.608 9.55305 44.7564 12.5118 46.924 15.0904C48.4805 16.908 49.2499 19.0204 49.1333 21.1563C49.1986 23.2755 48.4113 25.3629 46.8672 27.1651C44.7046 29.8696 43.5659 32.9382 43.5659 36.062C43.5659 39.1857 44.7046 42.2543 46.8672 44.9589C48.3506 46.801 49.1321 48.8944 49.1321 51.0258C49.1321 53.1573 48.3506 55.2507 46.8672 57.0928C44.4656 60.139 43.3786 63.6344 43.7456 67.1303L43.8624 68.4261C46.4947 68.3987 49.1617 68.3987 51.8225 68.3987Z" fill="#5C6C73"/>
<path d="M72.1613 66.7038C71.9139 64.3285 72.6512 61.9539 74.2792 59.8828C76.4399 57.1779 77.5775 54.1094 77.5775 50.986C77.5775 47.8625 76.4399 44.7941 74.2792 42.0891C72.7989 40.2548 72.0165 38.1701 72.0116 36.0465C72.0066 33.923 72.7791 31.8364 74.2508 29.9985C76.5118 27.3339 77.6674 24.2564 77.5806 21.1313C77.6962 17.9643 76.5349 14.8414 74.2382 12.1431C72.7988 10.4483 72.0343 8.49934 72.0288 6.51072L72.0288 4.60816C69.4407 4.60816 66.7768 4.60816 64.0845 4.60816L64.0845 6.51528C64.0889 9.53257 65.2373 12.4913 67.4049 15.07C68.9614 16.8881 69.7368 18.9991 69.6332 21.1358C69.6949 23.2551 68.9068 25.342 67.3638 27.1446C65.2003 29.8489 64.0612 32.9176 64.0612 36.0415C64.0612 39.1654 65.2003 42.2341 67.3638 44.9384C68.8454 46.781 69.6258 48.8742 69.6258 51.0054C69.6258 53.1365 68.8454 55.2297 67.3638 57.0723C64.9675 60.1199 63.8819 63.6144 64.2455 67.1098L64.3622 68.4056C67.0735 68.4056 69.7279 68.4056 72.3034 68.4216L72.1613 66.7038Z" fill="#5C6C73"/>
</g>
<defs>
<clipPath id="clip0_150_285">
<rect width="73" height="101" fill="white" transform="translate(101 4.41485e-06) rotate(90)"/>
</clipPath>
</defs>
</svg>
