<svg width="128" height="128" viewBox="0 0 128 128" fill="none" xmlns="http://www.w3.org/2000/svg">
<path fill-rule="evenodd" clip-rule="evenodd" d="M64.0002 112.422C62.865 112.463 61.7109 112.094 60.8716 111.222C44.7161 94.4184 26.3005 100.972 16.0235 107.018C12.7599 108.938 8 106.642 8 102.856V27.756C8 25.4825 9.22304 23.4012 11.2968 22.4693C20.4921 18.3375 46.8691 8.76167 64.0002 25.6133C81.1312 8.76167 107.508 18.3375 116.703 22.4693C118.778 23.4012 120 25.4825 120 27.756V102.856C120 106.642 115.241 108.938 111.977 107.018C101.7 100.972 83.284 94.4184 67.1288 111.222C66.2895 112.094 65.1354 112.463 64.0002 112.422ZM60.0002 33.0477C53.8241 25.8317 45.7509 23.7345 37.392 24.0253C28.9498 24.3189 20.8654 27.0918 16 29.1462V97.9392C21.3794 95.2752 28.2743 92.8416 35.9462 92.5568C43.8127 92.2648 52.1302 94.2568 60.0002 99.8952V33.0477ZM68.0002 99.8952C75.8702 94.2568 84.188 92.2648 92.0544 92.5568C99.7264 92.8416 106.621 95.2752 112 97.9392V29.1462C107.135 27.0918 99.0504 24.3189 90.608 24.0253C82.2496 23.7345 74.1763 25.8317 68.0002 33.0477V99.8952Z" fill="#5C6C73"/>
</svg>
